<?xml version="1.0" encoding="UTF-8" standalone="no"?>
<!DOCTYPE svg PUBLIC "-//W3C//DTD SVG 1.1//EN"
 "http://www.w3.org/Graphics/SVG/1.1/DTD/svg11.dtd">
<!-- Generated by graphviz version 2.40.1 (20161225.0304)
 -->
<!-- Title: %3 Pages: 1 -->
<svg width="571pt" height="2426pt"
 viewBox="0.00 0.00 571.24 2426.00" xmlns="http://www.w3.org/2000/svg" xmlns:xlink="http://www.w3.org/1999/xlink">
<g id="graph0" class="graph" transform="scale(1 1) rotate(0) translate(4 2422)">
<title>%3</title>
<g id="clust1" class="cluster">
<title>cluster_class</title>
</g>
<g id="clust2" class="cluster">
<title>cluster_chess</title>
</g>
<!-- c0 -->
<g id="node1" class="node">
<title>c0</title>
<ellipse fill="none" stroke="#000000" cx="66.9117" cy="-1393" rx="31.2258" ry="19.5322"/>
<text text-anchor="middle" x="66.9117" y="-1391.6" font-family="Times,serif" font-size="14.00" fill="#000000">战士</text>
</g>
<!-- h0 -->
<g id="node11" class="node">
<title>h0</title>
<ellipse fill="none" stroke="#000000" cx="476.5341" cy="-2198" rx="31.2258" ry="19.5322"/>
<text text-anchor="middle" x="476.5341" y="-2196.6" font-family="Times,serif" font-size="14.00" fill="#000000">斧王</text>
</g>
<!-- c0&#45;&gt;h0 -->
<g id="edge1" class="edge">
<title>c0&#45;&gt;h0</title>
<path fill="none" stroke="#000000" d="M69.1657,-1412.5075C81.5032,-1510.2204 149.6697,-1950.5822 397.8234,-2174 410.8825,-2185.7574 429.5629,-2191.757 445.4483,-2194.8176"/>
</g>
<!-- h3 -->
<g id="node14" class="node">
<title>h3</title>
<ellipse fill="none" stroke="#000000" cx="476.5341" cy="-2152" rx="50.8235" ry="19.5322"/>
<text text-anchor="middle" x="476.5341" y="-2150.6" font-family="Times,serif" font-size="14.00" fill="#000000">巨牙海民</text>
</g>
<!-- c0&#45;&gt;h3 -->
<g id="edge4" class="edge">
<title>c0&#45;&gt;h3</title>
<path fill="none" stroke="#000000" d="M69.7485,-1412.6183C84.457,-1507.1048 160.704,-1919.2489 397.8234,-2128 406.6161,-2135.7408 417.8518,-2140.9851 429.0632,-2144.5379"/>
</g>
<!-- h13 -->
<g id="node24" class="node">
<title>h13</title>
<ellipse fill="none" stroke="#000000" cx="476.5341" cy="-2106" rx="31.2258" ry="19.5322"/>
<text text-anchor="middle" x="476.5341" y="-2104.6" font-family="Times,serif" font-size="14.00" fill="#000000">剑圣</text>
</g>
<!-- c0&#45;&gt;h13 -->
<g id="edge14" class="edge">
<title>c0&#45;&gt;h13</title>
<path fill="none" stroke="#000000" d="M70.3857,-1412.6086C87.5279,-1503.5116 171.5528,-1887.7088 397.8234,-2082 411.155,-2093.4474 429.8461,-2099.435 445.669,-2102.5666"/>
</g>
<!-- h18 -->
<g id="node29" class="node">
<title>h18</title>
<ellipse fill="none" stroke="#000000" cx="476.5341" cy="-2060" rx="50.8235" ry="19.5322"/>
<text text-anchor="middle" x="476.5341" y="-2058.6" font-family="Times,serif" font-size="14.00" fill="#000000">鱼人守卫</text>
</g>
<!-- c0&#45;&gt;h18 -->
<g id="edge19" class="edge">
<title>c0&#45;&gt;h18</title>
<path fill="none" stroke="#000000" d="M71.0774,-1412.4701C90.7072,-1499.4371 182.1994,-1855.9495 397.8234,-2036 406.8154,-2043.5085 418.1226,-2048.6693 429.3393,-2052.2159"/>
</g>
<!-- h23 -->
<g id="node34" class="node">
<title>h23</title>
<ellipse fill="none" stroke="#000000" cx="476.5341" cy="-2382" rx="31.2258" ry="19.5322"/>
<text text-anchor="middle" x="476.5341" y="-2380.6" font-family="Times,serif" font-size="14.00" fill="#000000">狼人</text>
</g>
<!-- c0&#45;&gt;h23 -->
<g id="edge24" class="edge">
<title>c0&#45;&gt;h23</title>
<path fill="none" stroke="#000000" d="M67.4183,-1412.8013C71.3561,-1523.9721 105.5063,-2075.5664 397.8234,-2358 410.5632,-2370.3091 429.4283,-2376.3246 445.4959,-2379.2555"/>
</g>
<!-- h36 -->
<g id="node47" class="node">
<title>h36</title>
<ellipse fill="none" stroke="#000000" cx="476.5341" cy="-2336" rx="50.8235" ry="19.5322"/>
<text text-anchor="middle" x="476.5341" y="-2334.6" font-family="Times,serif" font-size="14.00" fill="#000000">末日使者</text>
</g>
<!-- c0&#45;&gt;h36 -->
<g id="edge37" class="edge">
<title>c0&#45;&gt;h36</title>
<path fill="none" stroke="#000000" d="M67.79,-1412.5786C73.6905,-1520.1634 116.4987,-2044.3116 397.8234,-2312 406.31,-2320.0753 417.4356,-2325.4397 428.6389,-2329.0015"/>
</g>
<!-- h37 -->
<g id="node48" class="node">
<title>h37</title>
<ellipse fill="none" stroke="#000000" cx="476.5341" cy="-2290" rx="50.8235" ry="19.5322"/>
<text text-anchor="middle" x="476.5341" y="-2288.6" font-family="Times,serif" font-size="14.00" fill="#000000">海军上将</text>
</g>
<!-- c0&#45;&gt;h37 -->
<g id="edge38" class="edge">
<title>c0&#45;&gt;h37</title>
<path fill="none" stroke="#000000" d="M68.2111,-1412.6393C76.1995,-1517.204 127.688,-2013.2209 397.8234,-2266 406.3771,-2274.0042 417.5268,-2279.3431 428.7319,-2282.9029"/>
</g>
<!-- h38 -->
<g id="node49" class="node">
<title>h38</title>
<ellipse fill="none" stroke="#000000" cx="476.5341" cy="-2244" rx="50.8235" ry="19.5322"/>
<text text-anchor="middle" x="476.5341" y="-2242.6" font-family="Times,serif" font-size="14.00" fill="#000000">巨魔战将</text>
</g>
<!-- c0&#45;&gt;h38 -->
<g id="edge39" class="edge">
<title>c0&#45;&gt;h38</title>
<path fill="none" stroke="#000000" d="M68.6695,-1412.6172C78.8052,-1513.8903 138.7481,-1981.9803 397.8234,-2220 406.45,-2227.9255 417.6259,-2233.2362 428.8329,-2236.7939"/>
</g>
<!-- c1 -->
<g id="node2" class="node">
<title>c1</title>
<ellipse fill="none" stroke="#000000" cx="66.9117" cy="-1347" rx="41.0244" ry="19.5322"/>
<text text-anchor="middle" x="66.9117" y="-1345.6" font-family="Times,serif" font-size="14.00" fill="#000000">德鲁伊</text>
</g>
<!-- h1 -->
<g id="node12" class="node">
<title>h1</title>
<ellipse fill="none" stroke="#000000" cx="476.5341" cy="-1968" rx="50.8235" ry="19.5322"/>
<text text-anchor="middle" x="476.5341" y="-1966.6" font-family="Times,serif" font-size="14.00" fill="#000000">魅惑魔女</text>
</g>
<!-- c1&#45;&gt;h1 -->
<g id="edge2" class="edge">
<title>c1&#45;&gt;h1</title>
<path fill="none" stroke="#000000" d="M102.7482,-1356.6979C111.0373,-1360.1962 119.3223,-1364.8552 125.8234,-1371 330.6942,-1564.6419 184.3661,-1759.8663 397.8234,-1944 406.6937,-1951.6518 417.9572,-1956.8641 429.1707,-1960.4145"/>
</g>
<!-- h20 -->
<g id="node31" class="node">
<title>h20</title>
<ellipse fill="none" stroke="#000000" cx="476.5341" cy="-1922" rx="50.8235" ry="19.5322"/>
<text text-anchor="middle" x="476.5341" y="-1920.6" font-family="Times,serif" font-size="14.00" fill="#000000">树精卫士</text>
</g>
<!-- c1&#45;&gt;h20 -->
<g id="edge21" class="edge">
<title>c1&#45;&gt;h20</title>
<path fill="none" stroke="#000000" d="M102.6062,-1356.8507C110.8988,-1360.3452 119.221,-1364.9642 125.8234,-1371 320.3629,-1548.8442 195.4044,-1729.1784 397.8234,-1898 406.8198,-1905.5032 418.1286,-1910.6621 429.3454,-1914.2086"/>
</g>
<!-- h22 -->
<g id="node33" class="node">
<title>h22</title>
<ellipse fill="none" stroke="#000000" cx="476.5341" cy="-1876" rx="31.2258" ry="19.5322"/>
<text text-anchor="middle" x="476.5341" y="-1874.6" font-family="Times,serif" font-size="14.00" fill="#000000">先知</text>
</g>
<!-- c1&#45;&gt;h22 -->
<g id="edge23" class="edge">
<title>c1&#45;&gt;h22</title>
<path fill="none" stroke="#000000" d="M102.4463,-1357.029C110.7429,-1360.5191 119.1069,-1365.0914 125.8234,-1371 310.2172,-1533.2159 206.2497,-1698.3296 397.8234,-1852 411.5304,-1862.9951 430.2362,-1868.965 445.973,-1872.2004"/>
</g>
<!-- h46 -->
<g id="node57" class="node">
<title>h46</title>
<ellipse fill="none" stroke="#000000" cx="476.5341" cy="-2014" rx="60.623" ry="19.5322"/>
<text text-anchor="middle" x="476.5341" y="-2012.6" font-family="Times,serif" font-size="14.00" fill="#000000">利爪德鲁伊</text>
</g>
<!-- c1&#45;&gt;h46 -->
<g id="edge47" class="edge">
<title>c1&#45;&gt;h46</title>
<path fill="none" stroke="#000000" d="M102.8749,-1356.5659C111.1608,-1360.0674 119.4126,-1364.761 125.8234,-1371 341.1748,-1580.5806 173.1721,-1790.4203 397.8234,-1990 404.9791,-1996.3572 413.7807,-2001.0307 422.8765,-2004.4663"/>
</g>
<!-- c2 -->
<g id="node3" class="node">
<title>c2</title>
<ellipse fill="none" stroke="#000000" cx="66.9117" cy="-1301" rx="31.2258" ry="19.5322"/>
<text text-anchor="middle" x="66.9117" y="-1299.6" font-family="Times,serif" font-size="14.00" fill="#000000">法师</text>
</g>
<!-- h2 -->
<g id="node13" class="node">
<title>h2</title>
<ellipse fill="none" stroke="#000000" cx="476.5341" cy="-1830" rx="70.922" ry="19.5322"/>
<text text-anchor="middle" x="476.5341" y="-1828.6" font-family="Times,serif" font-size="14.00" fill="#000000">食人魔魔法师</text>
</g>
<!-- c2&#45;&gt;h2 -->
<g id="edge3" class="edge">
<title>c2&#45;&gt;h2</title>
<path fill="none" stroke="#000000" d="M95.7354,-1308.4197C106.0779,-1312.1339 117.2827,-1317.4865 125.8234,-1325 310.2172,-1487.2159 206.2497,-1652.3296 397.8234,-1806 404.1754,-1811.0953 411.601,-1815.1114 419.3071,-1818.2763"/>
</g>
<!-- h11 -->
<g id="node22" class="node">
<title>h11</title>
<ellipse fill="none" stroke="#000000" cx="476.5341" cy="-1738" rx="50.8235" ry="19.5322"/>
<text text-anchor="middle" x="476.5341" y="-1736.6" font-family="Times,serif" font-size="14.00" fill="#000000">水晶室女</text>
</g>
<!-- c2&#45;&gt;h11 -->
<g id="edge12" class="edge">
<title>c2&#45;&gt;h11</title>
<path fill="none" stroke="#000000" d="M95.6616,-1308.976C105.8793,-1312.7343 117.0199,-1317.9719 125.8234,-1325 290.6904,-1456.619 227.1465,-1590.0077 397.8234,-1714 407.4166,-1720.9692 419.0631,-1725.9422 430.4231,-1729.4807"/>
</g>
<!-- h16 -->
<g id="node27" class="node">
<title>h16</title>
<ellipse fill="none" stroke="#000000" cx="476.5341" cy="-1646" rx="41.0244" ry="19.5322"/>
<text text-anchor="middle" x="476.5341" y="-1644.6" font-family="Times,serif" font-size="14.00" fill="#000000">精灵龙</text>
</g>
<!-- c2&#45;&gt;h16 -->
<g id="edge17" class="edge">
<title>c2&#45;&gt;h16</title>
<path fill="none" stroke="#000000" d="M95.1817,-1309.6194C105.3475,-1313.4472 116.5779,-1318.5645 125.8234,-1325 272.73,-1427.2573 246.4224,-1526.523 397.8234,-1622 410.0282,-1629.6967 424.8544,-1635.0559 438.3337,-1638.7241"/>
</g>
<!-- h26 -->
<g id="node37" class="node">
<title>h26</title>
<ellipse fill="none" stroke="#000000" cx="476.5341" cy="-1600" rx="50.8235" ry="19.5322"/>
<text text-anchor="middle" x="476.5341" y="-1598.6" font-family="Times,serif" font-size="14.00" fill="#000000">闪电幽魂</text>
</g>
<!-- c2&#45;&gt;h26 -->
<g id="edge27" class="edge">
<title>c2&#45;&gt;h26</title>
<path fill="none" stroke="#000000" d="M94.5993,-1309.9336C104.8107,-1313.8227 116.2225,-1318.8993 125.8234,-1325 264.6606,-1413.2212 255.1212,-1494.178 397.8234,-1576 408.3578,-1582.0402 420.5742,-1586.7152 432.1942,-1590.2657"/>
</g>
<!-- h35 -->
<g id="node46" class="node">
<title>h35</title>
<ellipse fill="none" stroke="#000000" cx="476.5341" cy="-1554" rx="60.623" ry="19.5322"/>
<text text-anchor="middle" x="476.5341" y="-1552.6" font-family="Times,serif" font-size="14.00" fill="#000000">秀逗魔导士</text>
</g>
<!-- c2&#45;&gt;h35 -->
<g id="edge36" class="edge">
<title>c2&#45;&gt;h35</title>
<path fill="none" stroke="#000000" d="M94.2872,-1310.4528C104.4625,-1314.4019 115.9312,-1319.3839 125.8234,-1325 257.4656,-1399.7375 262.9214,-1461.3208 397.8234,-1530 407.2445,-1534.7963 417.7959,-1538.8252 428.0369,-1542.1294"/>
</g>
<!-- h39 -->
<g id="node50" class="node">
<title>h39</title>
<ellipse fill="none" stroke="#000000" cx="476.5341" cy="-1692" rx="50.8235" ry="19.5322"/>
<text text-anchor="middle" x="476.5341" y="-1690.6" font-family="Times,serif" font-size="14.00" fill="#000000">光之守卫</text>
</g>
<!-- c2&#45;&gt;h39 -->
<g id="edge40" class="edge">
<title>c2&#45;&gt;h39</title>
<path fill="none" stroke="#000000" d="M95.4361,-1309.2674C105.6295,-1313.0571 116.8122,-1318.2403 125.8234,-1325 281.4597,-1441.7509 237.0432,-1558.441 397.8234,-1668 407.6222,-1674.6771 419.341,-1679.5474 430.7047,-1683.0805"/>
</g>
<!-- h48 -->
<g id="node59" class="node">
<title>h48</title>
<ellipse fill="none" stroke="#000000" cx="476.5341" cy="-1784" rx="31.2258" ry="19.5322"/>
<text text-anchor="middle" x="476.5341" y="-1782.6" font-family="Times,serif" font-size="14.00" fill="#000000">巫妖</text>
</g>
<!-- c2&#45;&gt;h48 -->
<g id="edge49" class="edge">
<title>c2&#45;&gt;h48</title>
<path fill="none" stroke="#000000" d="M95.5599,-1308.6236C105.8822,-1312.3615 117.1189,-1317.6769 125.8234,-1325 300.305,-1471.7926 216.8524,-1621.2866 397.8234,-1760 411.6564,-1770.6029 430.1809,-1776.5506 445.7838,-1779.8721"/>
</g>
<!-- c3 -->
<g id="node4" class="node">
<title>c3</title>
<ellipse fill="none" stroke="#000000" cx="66.9117" cy="-1255" rx="31.2258" ry="19.5322"/>
<text text-anchor="middle" x="66.9117" y="-1253.6" font-family="Times,serif" font-size="14.00" fill="#000000">猎人</text>
</g>
<!-- h4 -->
<g id="node15" class="node">
<title>h4</title>
<ellipse fill="none" stroke="#000000" cx="476.5341" cy="-1462" rx="50.8235" ry="19.5322"/>
<text text-anchor="middle" x="476.5341" y="-1460.6" font-family="Times,serif" font-size="14.00" fill="#000000">卓尔游侠</text>
</g>
<!-- c3&#45;&gt;h4 -->
<g id="edge5" class="edge">
<title>c3&#45;&gt;h4</title>
<path fill="none" stroke="#000000" d="M93.9539,-1265.0821C104.0907,-1269.1038 115.6201,-1273.9712 125.8234,-1279 251.4248,-1340.9047 269.539,-1381.8659 397.8234,-1438 409.3408,-1443.0398 422.2408,-1447.4506 434.2119,-1451.0694"/>
</g>
<!-- h12 -->
<g id="node23" class="node">
<title>h12</title>
<ellipse fill="none" stroke="#000000" cx="476.5341" cy="-1370" rx="31.2258" ry="19.5322"/>
<text text-anchor="middle" x="476.5341" y="-1368.6" font-family="Times,serif" font-size="14.00" fill="#000000">兽王</text>
</g>
<!-- c3&#45;&gt;h12 -->
<g id="edge13" class="edge">
<title>c3&#45;&gt;h12</title>
<path fill="none" stroke="#000000" d="M95.3903,-1262.9953C170.4125,-1284.0575 372.8556,-1340.8926 447.972,-1361.9813"/>
</g>
<!-- h27 -->
<g id="node38" class="node">
<title>h27</title>
<ellipse fill="none" stroke="#000000" cx="476.5341" cy="-1416" rx="41.0244" ry="19.5322"/>
<text text-anchor="middle" x="476.5341" y="-1414.6" font-family="Times,serif" font-size="14.00" fill="#000000">风行者</text>
</g>
<!-- c3&#45;&gt;h27 -->
<g id="edge28" class="edge">
<title>c3&#45;&gt;h27</title>
<path fill="none" stroke="#000000" d="M93.3211,-1265.7137C103.4872,-1269.8498 115.2015,-1274.6301 125.8234,-1279 246.8845,-1328.8057 274.6244,-1347.7461 397.8234,-1392 411.8063,-1397.0227 427.4184,-1401.9254 441.0283,-1405.9767"/>
</g>
<!-- h32 -->
<g id="node43" class="node">
<title>h32</title>
<ellipse fill="none" stroke="#000000" cx="476.5341" cy="-1324" rx="41.0244" ry="19.5322"/>
<text text-anchor="middle" x="476.5341" y="-1322.6" font-family="Times,serif" font-size="14.00" fill="#000000">狙击手</text>
</g>
<!-- c3&#45;&gt;h32 -->
<g id="edge33" class="edge">
<title>c3&#45;&gt;h32</title>
<path fill="none" stroke="#000000" d="M97.0322,-1260.0737C170.0125,-1272.3671 356.2615,-1303.7403 437.5721,-1317.4369"/>
</g>
<!-- h44 -->
<g id="node55" class="node">
<title>h44</title>
<ellipse fill="none" stroke="#000000" cx="476.5341" cy="-1508" rx="50.8235" ry="19.5322"/>
<text text-anchor="middle" x="476.5341" y="-1506.6" font-family="Times,serif" font-size="14.00" fill="#000000">蛇发女妖</text>
</g>
<!-- c3&#45;&gt;h44 -->
<g id="edge45" class="edge">
<title>c3&#45;&gt;h44</title>
<path fill="none" stroke="#000000" d="M94.2872,-1264.4528C104.4625,-1268.4019 115.9312,-1273.3839 125.8234,-1279 257.4656,-1353.7375 262.9214,-1415.3208 397.8234,-1484 408.7722,-1489.5741 421.2477,-1494.1116 432.9883,-1497.6799"/>
</g>
<!-- h49 -->
<g id="node60" class="node">
<title>h49</title>
<ellipse fill="none" stroke="#000000" cx="476.5341" cy="-1278" rx="50.8235" ry="19.5322"/>
<text text-anchor="middle" x="476.5341" y="-1276.6" font-family="Times,serif" font-size="14.00" fill="#000000">潮汐猎人</text>
</g>
<!-- c3&#45;&gt;h49 -->
<g id="edge50" class="edge">
<title>c3&#45;&gt;h49</title>
<path fill="none" stroke="#000000" d="M98.0362,-1256.7476C168.4228,-1260.6998 340.3678,-1270.3544 426.1484,-1275.1709"/>
</g>
<!-- c4 -->
<g id="node5" class="node">
<title>c4</title>
<ellipse fill="none" stroke="#000000" cx="66.9117" cy="-1209" rx="31.2258" ry="19.5322"/>
<text text-anchor="middle" x="66.9117" y="-1207.6" font-family="Times,serif" font-size="14.00" fill="#000000">刺客</text>
</g>
<!-- h5 -->
<g id="node16" class="node">
<title>h5</title>
<ellipse fill="none" stroke="#000000" cx="476.5341" cy="-1048" rx="50.8235" ry="19.5322"/>
<text text-anchor="middle" x="476.5341" y="-1046.6" font-family="Times,serif" font-size="14.00" fill="#000000">赏金猎人</text>
</g>
<!-- c4&#45;&gt;h5 -->
<g id="edge6" class="edge">
<title>c4&#45;&gt;h5</title>
<path fill="none" stroke="#000000" d="M93.3211,-1198.2863C103.4872,-1194.1502 115.2015,-1189.3699 125.8234,-1185 246.8845,-1135.1943 274.6244,-1116.2539 397.8234,-1072 409.9239,-1067.6534 423.2446,-1063.3967 435.432,-1059.7039"/>
</g>
<!-- h15 -->
<g id="node26" class="node">
<title>h15</title>
<ellipse fill="none" stroke="#000000" cx="476.5341" cy="-1186" rx="50.8235" ry="19.5322"/>
<text text-anchor="middle" x="476.5341" y="-1184.6" font-family="Times,serif" font-size="14.00" fill="#000000">痛苦女王</text>
</g>
<!-- c4&#45;&gt;h15 -->
<g id="edge16" class="edge">
<title>c4&#45;&gt;h15</title>
<path fill="none" stroke="#000000" d="M98.0362,-1207.2524C168.4228,-1203.3002 340.3678,-1193.6456 426.1484,-1188.8291"/>
</g>
<!-- h28 -->
<g id="node39" class="node">
<title>h28</title>
<ellipse fill="none" stroke="#000000" cx="476.5341" cy="-1002" rx="50.8235" ry="19.5322"/>
<text text-anchor="middle" x="476.5341" y="-1000.6" font-family="Times,serif" font-size="14.00" fill="#000000">幻影刺客</text>
</g>
<!-- c4&#45;&gt;h28 -->
<g id="edge29" class="edge">
<title>c4&#45;&gt;h28</title>
<path fill="none" stroke="#000000" d="M93.9539,-1198.9179C104.0907,-1194.8962 115.6201,-1190.0288 125.8234,-1185 251.4248,-1123.0953 269.539,-1082.1341 397.8234,-1026 409.3408,-1020.9602 422.2408,-1016.5494 434.2119,-1012.9306"/>
</g>
<!-- h30 -->
<g id="node41" class="node">
<title>h30</title>
<ellipse fill="none" stroke="#000000" cx="476.5341" cy="-956" rx="31.2258" ry="19.5322"/>
<text text-anchor="middle" x="476.5341" y="-954.6" font-family="Times,serif" font-size="14.00" fill="#000000">沙王</text>
</g>
<!-- c4&#45;&gt;h30 -->
<g id="edge31" class="edge">
<title>c4&#45;&gt;h30</title>
<path fill="none" stroke="#000000" d="M94.2872,-1199.5472C104.4625,-1195.5981 115.9312,-1190.6161 125.8234,-1185 257.4656,-1110.2625 262.9214,-1048.6792 397.8234,-980 413.2282,-972.1574 431.6549,-966.3668 446.8054,-962.4405"/>
</g>
<!-- h31 -->
<g id="node42" class="node">
<title>h31</title>
<ellipse fill="none" stroke="#000000" cx="476.5341" cy="-1232" rx="60.623" ry="19.5322"/>
<text text-anchor="middle" x="476.5341" y="-1230.6" font-family="Times,serif" font-size="14.00" fill="#000000">鱼人夜行者</text>
</g>
<!-- c4&#45;&gt;h31 -->
<g id="edge32" class="edge">
<title>c4&#45;&gt;h31</title>
<path fill="none" stroke="#000000" d="M98.0362,-1210.7476C165.9023,-1214.5583 328.1836,-1223.6702 416.6104,-1228.6353"/>
</g>
<!-- h33 -->
<g id="node44" class="node">
<title>h33</title>
<ellipse fill="none" stroke="#000000" cx="476.5341" cy="-1094" rx="50.8235" ry="19.5322"/>
<text text-anchor="middle" x="476.5341" y="-1092.6" font-family="Times,serif" font-size="14.00" fill="#000000">冥界亚龙</text>
</g>
<!-- c4&#45;&gt;h33 -->
<g id="edge34" class="edge">
<title>c4&#45;&gt;h33</title>
<path fill="none" stroke="#000000" d="M95.3903,-1201.0047C166.5117,-1181.0377 352.1479,-1128.921 435.2581,-1105.5881"/>
</g>
<!-- h41 -->
<g id="node52" class="node">
<title>h41</title>
<ellipse fill="none" stroke="#000000" cx="476.5341" cy="-1140" rx="50.8235" ry="19.5322"/>
<text text-anchor="middle" x="476.5341" y="-1138.6" font-family="Times,serif" font-size="14.00" fill="#000000">圣堂刺客</text>
</g>
<!-- c4&#45;&gt;h41 -->
<g id="edge42" class="edge">
<title>c4&#45;&gt;h41</title>
<path fill="none" stroke="#000000" d="M97.0322,-1203.9263C167.7954,-1192.0064 345.0496,-1162.1483 429.8771,-1147.8593"/>
</g>
<!-- c5 -->
<g id="node6" class="node">
<title>c5</title>
<ellipse fill="none" stroke="#000000" cx="66.9117" cy="-1163" rx="31.2258" ry="19.5322"/>
<text text-anchor="middle" x="66.9117" y="-1161.6" font-family="Times,serif" font-size="14.00" fill="#000000">工匠</text>
</g>
<!-- h6 -->
<g id="node17" class="node">
<title>h6</title>
<ellipse fill="none" stroke="#000000" cx="476.5341" cy="-864" rx="50.8235" ry="19.5322"/>
<text text-anchor="middle" x="476.5341" y="-862.6" font-family="Times,serif" font-size="14.00" fill="#000000">发条技师</text>
</g>
<!-- c5&#45;&gt;h6 -->
<g id="edge7" class="edge">
<title>c5&#45;&gt;h6</title>
<path fill="none" stroke="#000000" d="M94.5993,-1154.0664C104.8107,-1150.1773 116.2225,-1145.1007 125.8234,-1139 264.6606,-1050.7788 255.1212,-969.822 397.8234,-888 408.3578,-881.9598 420.5742,-877.2848 432.1942,-873.7343"/>
</g>
<!-- h9 -->
<g id="node20" class="node">
<title>h9</title>
<ellipse fill="none" stroke="#000000" cx="476.5341" cy="-818" rx="41.0244" ry="19.5322"/>
<text text-anchor="middle" x="476.5341" y="-816.6" font-family="Times,serif" font-size="14.00" fill="#000000">修补匠</text>
</g>
<!-- c5&#45;&gt;h9 -->
<g id="edge10" class="edge">
<title>c5&#45;&gt;h9</title>
<path fill="none" stroke="#000000" d="M95.1817,-1154.3806C105.3475,-1150.5528 116.5779,-1145.4355 125.8234,-1139 272.73,-1036.7427 246.4224,-937.477 397.8234,-842 410.0282,-834.3033 424.8544,-828.9441 438.3337,-825.2759"/>
</g>
<!-- h14 -->
<g id="node25" class="node">
<title>h14</title>
<ellipse fill="none" stroke="#000000" cx="476.5341" cy="-772" rx="41.0244" ry="19.5322"/>
<text text-anchor="middle" x="476.5341" y="-770.6" font-family="Times,serif" font-size="14.00" fill="#000000">伐木机</text>
</g>
<!-- c5&#45;&gt;h14 -->
<g id="edge15" class="edge">
<title>c5&#45;&gt;h14</title>
<path fill="none" stroke="#000000" d="M95.4361,-1154.7326C105.6295,-1150.9429 116.8122,-1145.7597 125.8234,-1139 281.4597,-1022.2491 237.0432,-905.559 397.8234,-796 409.7472,-787.8748 424.5141,-782.4252 438.0247,-778.8047"/>
</g>
<!-- h47 -->
<g id="node58" class="node">
<title>h47</title>
<ellipse fill="none" stroke="#000000" cx="476.5341" cy="-910" rx="60.623" ry="19.5322"/>
<text text-anchor="middle" x="476.5341" y="-908.6" font-family="Times,serif" font-size="14.00" fill="#000000">矮人直升机</text>
</g>
<!-- c5&#45;&gt;h47 -->
<g id="edge48" class="edge">
<title>c5&#45;&gt;h47</title>
<path fill="none" stroke="#000000" d="M94.2872,-1153.5472C104.4625,-1149.5981 115.9312,-1144.6161 125.8234,-1139 257.4656,-1064.2625 262.9214,-1002.6792 397.8234,-934 407.2445,-929.2037 417.7959,-925.1748 428.0369,-921.8706"/>
</g>
<!-- h51 -->
<g id="node62" class="node">
<title>h51</title>
<ellipse fill="none" stroke="#000000" cx="476.5341" cy="-726" rx="60.623" ry="19.5322"/>
<text text-anchor="middle" x="476.5341" y="-724.6" font-family="Times,serif" font-size="14.00" fill="#000000">地精工程师</text>
</g>
<!-- c5&#45;&gt;h51 -->
<g id="edge52" class="edge">
<title>c5&#45;&gt;h51</title>
<path fill="none" stroke="#000000" d="M95.6616,-1155.024C105.8793,-1151.2657 117.0199,-1146.0281 125.8234,-1139 290.6904,-1007.381 227.1465,-873.9923 397.8234,-750 405.7985,-744.2063 415.1926,-739.7922 424.6615,-736.435"/>
</g>
<!-- c6 -->
<g id="node7" class="node">
<title>c6</title>
<ellipse fill="none" stroke="#000000" cx="66.9117" cy="-1117" rx="50.8235" ry="19.5322"/>
<text text-anchor="middle" x="66.9117" y="-1115.6" font-family="Times,serif" font-size="14.00" fill="#000000">萨满祭司</text>
</g>
<!-- h7 -->
<g id="node18" class="node">
<title>h7</title>
<ellipse fill="none" stroke="#000000" cx="476.5341" cy="-680" rx="50.8235" ry="19.5322"/>
<text text-anchor="middle" x="476.5341" y="-678.6" font-family="Times,serif" font-size="14.00" fill="#000000">暗影萨满</text>
</g>
<!-- c6&#45;&gt;h7 -->
<g id="edge8" class="edge">
<title>c6&#45;&gt;h7</title>
<path fill="none" stroke="#000000" d="M106.3741,-1104.6201C113.2497,-1101.4605 120.0407,-1097.6165 125.8234,-1093 290.6904,-961.381 227.1465,-827.9923 397.8234,-704 407.4166,-697.0308 419.0631,-692.0578 430.4231,-688.5193"/>
</g>
<!-- h43 -->
<g id="node54" class="node">
<title>h43</title>
<ellipse fill="none" stroke="#000000" cx="476.5341" cy="-634" rx="41.0244" ry="19.5322"/>
<text text-anchor="middle" x="476.5341" y="-632.6" font-family="Times,serif" font-size="14.00" fill="#000000">干扰者</text>
</g>
<!-- c6&#45;&gt;h43 -->
<g id="edge44" class="edge">
<title>c6&#45;&gt;h43</title>
<path fill="none" stroke="#000000" d="M106.8782,-1104.7176C113.6284,-1101.5606 120.2458,-1097.6925 125.8234,-1093 300.305,-946.2074 216.8524,-796.7134 397.8234,-658 409.2753,-649.2222 423.9426,-643.6349 437.5057,-640.0869"/>
</g>
<!-- c7 -->
<g id="node8" class="node">
<title>c7</title>
<ellipse fill="none" stroke="#000000" cx="66.9117" cy="-1071" rx="31.2258" ry="19.5322"/>
<text text-anchor="middle" x="66.9117" y="-1069.6" font-family="Times,serif" font-size="14.00" fill="#000000">骑士</text>
</g>
<!-- h8 -->
<g id="node19" class="node">
<title>h8</title>
<ellipse fill="none" stroke="#000000" cx="476.5341" cy="-450" rx="50.8235" ry="19.5322"/>
<text text-anchor="middle" x="476.5341" y="-448.6" font-family="Times,serif" font-size="14.00" fill="#000000">蝙蝠骑士</text>
</g>
<!-- c7&#45;&gt;h8 -->
<g id="edge9" class="edge">
<title>c7&#45;&gt;h8</title>
<path fill="none" stroke="#000000" d="M96.0289,-1063.9021C106.4053,-1060.225 117.5565,-1054.8137 125.8234,-1047 330.6942,-853.3581 184.3661,-658.1337 397.8234,-474 406.6937,-466.3482 417.9572,-461.1359 429.1707,-457.5855"/>
</g>
<!-- h19 -->
<g id="node30" class="node">
<title>h19</title>
<ellipse fill="none" stroke="#000000" cx="476.5341" cy="-542" rx="50.8235" ry="19.5322"/>
<text text-anchor="middle" x="476.5341" y="-540.6" font-family="Times,serif" font-size="14.00" fill="#000000">混沌骑士</text>
</g>
<!-- c7&#45;&gt;h19 -->
<g id="edge20" class="edge">
<title>c7&#45;&gt;h19</title>
<path fill="none" stroke="#000000" d="M95.7354,-1063.5803C106.0779,-1059.8661 117.2827,-1054.5135 125.8234,-1047 310.2172,-884.7841 206.2497,-719.6704 397.8234,-566 407.0728,-558.5806 418.5985,-553.4493 429.9521,-549.9025"/>
</g>
<!-- h21 -->
<g id="node32" class="node">
<title>h21</title>
<ellipse fill="none" stroke="#000000" cx="476.5341" cy="-404" rx="50.8235" ry="19.5322"/>
<text text-anchor="middle" x="476.5341" y="-402.6" font-family="Times,serif" font-size="14.00" fill="#000000">月之骑士</text>
</g>
<!-- c7&#45;&gt;h21 -->
<g id="edge22" class="edge">
<title>c7&#45;&gt;h21</title>
<path fill="none" stroke="#000000" d="M96.152,-1064.0305C106.5426,-1060.3682 117.6714,-1054.9335 125.8234,-1047 341.1748,-837.4194 173.1721,-627.5797 397.8234,-428 406.5812,-420.2196 417.8042,-414.9611 429.0147,-411.4072"/>
</g>
<!-- h25 -->
<g id="node36" class="node">
<title>h25</title>
<ellipse fill="none" stroke="#000000" cx="476.5341" cy="-496" rx="50.8235" ry="19.5322"/>
<text text-anchor="middle" x="476.5341" y="-494.6" font-family="Times,serif" font-size="14.00" fill="#000000">全能骑士</text>
</g>
<!-- c7&#45;&gt;h25 -->
<g id="edge26" class="edge">
<title>c7&#45;&gt;h25</title>
<path fill="none" stroke="#000000" d="M95.8908,-1063.7536C106.2513,-1060.0593 117.4277,-1054.6752 125.8234,-1047 320.3629,-869.1558 195.4044,-688.8216 397.8234,-520 406.8198,-512.4968 418.1286,-507.3379 429.3454,-503.7914"/>
</g>
<!-- h29 -->
<g id="node40" class="node">
<title>h29</title>
<ellipse fill="none" stroke="#000000" cx="476.5341" cy="-588" rx="50.8235" ry="19.5322"/>
<text text-anchor="middle" x="476.5341" y="-586.6" font-family="Times,serif" font-size="14.00" fill="#000000">死亡骑士</text>
</g>
<!-- c7&#45;&gt;h29 -->
<g id="edge30" class="edge">
<title>c7&#45;&gt;h29</title>
<path fill="none" stroke="#000000" d="M95.5599,-1063.3764C105.8822,-1059.6385 117.1189,-1054.3231 125.8234,-1047 300.305,-900.2074 216.8524,-750.7134 397.8234,-612 407.2344,-604.7865 418.8168,-599.7277 430.1734,-596.1847"/>
</g>
<!-- h45 -->
<g id="node56" class="node">
<title>h45</title>
<ellipse fill="none" stroke="#000000" cx="476.5341" cy="-358" rx="41.0244" ry="19.5322"/>
<text text-anchor="middle" x="476.5341" y="-356.6" font-family="Times,serif" font-size="14.00" fill="#000000">龙骑士</text>
</g>
<!-- c7&#45;&gt;h45 -->
<g id="edge46" class="edge">
<title>c7&#45;&gt;h45</title>
<path fill="none" stroke="#000000" d="M96.2622,-1064.1423C106.6655,-1060.4929 117.7743,-1055.0379 125.8234,-1047 351.7769,-821.3626 161.8514,-597.1382 397.8234,-382 408.4861,-372.2787 422.9869,-366.4924 436.6377,-363.0493"/>
</g>
<!-- c8 -->
<g id="node9" class="node">
<title>c8</title>
<ellipse fill="none" stroke="#000000" cx="66.9117" cy="-1025" rx="50.8235" ry="19.5322"/>
<text text-anchor="middle" x="66.9117" y="-1023.6" font-family="Times,serif" font-size="14.00" fill="#000000">恶魔猎手</text>
</g>
<!-- h10 -->
<g id="node21" class="node">
<title>h10</title>
<ellipse fill="none" stroke="#000000" cx="476.5341" cy="-312" rx="41.0244" ry="19.5322"/>
<text text-anchor="middle" x="476.5341" y="-310.6" font-family="Times,serif" font-size="14.00" fill="#000000">敌法师</text>
</g>
<!-- c8&#45;&gt;h10 -->
<g id="edge11" class="edge">
<title>c8&#45;&gt;h10</title>
<path fill="none" stroke="#000000" d="M107.8755,-1013.3268C114.4458,-1010.1163 120.7438,-1006.0724 125.8234,-1001 351.7769,-775.3626 161.8514,-551.1382 397.8234,-336 408.4861,-326.2787 422.9869,-320.4924 436.6377,-317.0493"/>
</g>
<!-- c9 -->
<g id="node10" class="node">
<title>c9</title>
<ellipse fill="none" stroke="#000000" cx="66.9117" cy="-979" rx="31.2258" ry="19.5322"/>
<text text-anchor="middle" x="66.9117" y="-977.6" font-family="Times,serif" font-size="14.00" fill="#000000">术士</text>
</g>
<!-- h17 -->
<g id="node28" class="node">
<title>h17</title>
<ellipse fill="none" stroke="#000000" cx="476.5341" cy="-36" rx="31.2258" ry="19.5322"/>
<text text-anchor="middle" x="476.5341" y="-34.6" font-family="Times,serif" font-size="14.00" fill="#000000">巫医</text>
</g>
<!-- c9&#45;&gt;h17 -->
<g id="edge18" class="edge">
<title>c9&#45;&gt;h17</title>
<path fill="none" stroke="#000000" d="M67.79,-959.4214C73.6905,-851.8366 116.4987,-327.6884 397.8234,-60 410.6568,-47.7886 429.5249,-41.7761 445.5706,-38.8224"/>
</g>
<!-- h24 -->
<g id="node35" class="node">
<title>h24</title>
<ellipse fill="none" stroke="#000000" cx="476.5341" cy="-220" rx="50.8235" ry="19.5322"/>
<text text-anchor="middle" x="476.5341" y="-218.6" font-family="Times,serif" font-size="14.00" fill="#000000">剧毒术士</text>
</g>
<!-- c9&#45;&gt;h24 -->
<g id="edge25" class="edge">
<title>c9&#45;&gt;h24</title>
<path fill="none" stroke="#000000" d="M69.7485,-959.3817C84.457,-864.8952 160.704,-452.7511 397.8234,-244 406.6161,-236.2592 417.8518,-231.0149 429.0632,-227.4621"/>
</g>
<!-- h34 -->
<g id="node45" class="node">
<title>h34</title>
<ellipse fill="none" stroke="#000000" cx="476.5341" cy="-128" rx="31.2258" ry="19.5322"/>
<text text-anchor="middle" x="476.5341" y="-126.6" font-family="Times,serif" font-size="14.00" fill="#000000">影魔</text>
</g>
<!-- c9&#45;&gt;h34 -->
<g id="edge35" class="edge">
<title>c9&#45;&gt;h34</title>
<path fill="none" stroke="#000000" d="M68.6695,-959.3828C78.8052,-858.1097 138.7481,-390.0197 397.8234,-152 410.8685,-140.015 429.7432,-134.0096 445.7395,-131.003"/>
</g>
<!-- h40 -->
<g id="node51" class="node">
<title>h40</title>
<ellipse fill="none" stroke="#000000" cx="476.5341" cy="-174" rx="50.8235" ry="19.5322"/>
<text text-anchor="middle" x="476.5341" y="-172.6" font-family="Times,serif" font-size="14.00" fill="#000000">死灵法师</text>
</g>
<!-- c9&#45;&gt;h40 -->
<g id="edge41" class="edge">
<title>c9&#45;&gt;h40</title>
<path fill="none" stroke="#000000" d="M69.1657,-959.4925C81.5032,-861.7796 149.6697,-421.4178 397.8234,-198 406.5294,-190.1618 417.7339,-184.8825 428.943,-181.3271"/>
</g>
<!-- h42 -->
<g id="node53" class="node">
<title>h42</title>
<ellipse fill="none" stroke="#000000" cx="476.5341" cy="-266" rx="50.8235" ry="19.5322"/>
<text text-anchor="middle" x="476.5341" y="-264.6" font-family="Times,serif" font-size="14.00" fill="#000000">炼金术士</text>
</g>
<!-- c9&#45;&gt;h42 -->
<g id="edge43" class="edge">
<title>c9&#45;&gt;h42</title>
<path fill="none" stroke="#000000" d="M70.3857,-959.3914C87.5279,-868.4884 171.5528,-484.2912 397.8234,-290 406.7111,-282.3684 417.9809,-277.1634 429.1948,-273.6134"/>
</g>
<!-- h50 -->
<g id="node61" class="node">
<title>h50</title>
<ellipse fill="none" stroke="#000000" cx="476.5341" cy="-82" rx="31.2258" ry="19.5322"/>
<text text-anchor="middle" x="476.5341" y="-80.6" font-family="Times,serif" font-size="14.00" fill="#000000">谜团</text>
</g>
<!-- c9&#45;&gt;h50 -->
<g id="edge51" class="edge">
<title>c9&#45;&gt;h50</title>
<path fill="none" stroke="#000000" d="M68.2111,-959.3607C76.1995,-854.796 127.688,-358.7791 397.8234,-106 410.7583,-93.8961 429.6296,-87.887 445.6515,-84.9082"/>
</g>
</g>
</svg>
