<?xml version="1.0" encoding="UTF-8" standalone="no"?>
<!DOCTYPE svg PUBLIC "-//W3C//DTD SVG 1.1//EN"
 "http://www.w3.org/Graphics/SVG/1.1/DTD/svg11.dtd">
<!-- Generated by graphviz version 2.40.1 (20161225.0304)
 -->
<!-- Title: %3 Pages: 1 -->
<svg width="551pt" height="2426pt"
 viewBox="0.00 0.00 551.45 2426.00" xmlns="http://www.w3.org/2000/svg" xmlns:xlink="http://www.w3.org/1999/xlink">
<g id="graph0" class="graph" transform="scale(1 1) rotate(0) translate(4 2422)">
<title>%3</title>
<g id="clust1" class="cluster">
<title>cluster_species</title>
</g>
<g id="clust2" class="cluster">
<title>cluster_chess</title>
</g>
<!-- s0 -->
<g id="node1" class="node">
<title>s0</title>
<ellipse fill="none" stroke="#000000" cx="57.0122" cy="-1462" rx="31.2258" ry="19.5322"/>
<text text-anchor="middle" x="57.0122" y="-1460.6" font-family="Times,serif" font-size="14.00" fill="#000000">兽人</text>
</g>
<!-- h0 -->
<g id="node14" class="node">
<title>h0</title>
<ellipse fill="none" stroke="#000000" cx="456.7351" cy="-2382" rx="31.2258" ry="19.5322"/>
<text text-anchor="middle" x="456.7351" y="-2380.6" font-family="Times,serif" font-size="14.00" fill="#000000">斧王</text>
</g>
<!-- s0&#45;&gt;h0 -->
<g id="edge1" class="edge">
<title>s0&#45;&gt;h0</title>
<path fill="none" stroke="#000000" d="M57.8674,-1481.779C63.5543,-1588.1964 104.7047,-2097.5118 378.0244,-2358 390.8481,-2370.2217 409.7159,-2376.2344 425.7638,-2379.1858"/>
</g>
<!-- h12 -->
<g id="node26" class="node">
<title>h12</title>
<ellipse fill="none" stroke="#000000" cx="456.7351" cy="-2336" rx="31.2258" ry="19.5322"/>
<text text-anchor="middle" x="456.7351" y="-2334.6" font-family="Times,serif" font-size="14.00" fill="#000000">兽王</text>
</g>
<!-- s0&#45;&gt;h12 -->
<g id="edge13" class="edge">
<title>s0&#45;&gt;h12</title>
<path fill="none" stroke="#000000" d="M58.299,-1481.7947C66.0892,-1585.0362 115.8521,-2066.3733 378.0244,-2312 390.952,-2324.1117 409.823,-2330.1211 425.8467,-2333.0981"/>
</g>
<!-- h13 -->
<g id="node27" class="node">
<title>h13</title>
<ellipse fill="none" stroke="#000000" cx="456.7351" cy="-2290" rx="31.2258" ry="19.5322"/>
<text text-anchor="middle" x="456.7351" y="-2288.6" font-family="Times,serif" font-size="14.00" fill="#000000">剑圣</text>
</g>
<!-- s0&#45;&gt;h13 -->
<g id="edge14" class="edge">
<title>s0&#45;&gt;h13</title>
<path fill="none" stroke="#000000" d="M58.7682,-1481.725C68.7197,-1581.5218 126.8691,-2035.0836 378.0244,-2266 391.0651,-2277.9898 409.9396,-2283.9954 425.9369,-2287.0009"/>
</g>
<!-- h43 -->
<g id="node57" class="node">
<title>h43</title>
<ellipse fill="none" stroke="#000000" cx="456.7351" cy="-2244" rx="41.0244" ry="19.5322"/>
<text text-anchor="middle" x="456.7351" y="-2242.6" font-family="Times,serif" font-size="14.00" fill="#000000">干扰者</text>
</g>
<!-- s0&#45;&gt;h43 -->
<g id="edge46" class="edge">
<title>s0&#45;&gt;h43</title>
<path fill="none" stroke="#000000" d="M59.2755,-1481.5651C71.4412,-1577.651 137.746,-2003.6349 378.0244,-2220 388.7469,-2229.6553 403.2603,-2235.4277 416.9045,-2238.8782"/>
</g>
<!-- s1 -->
<g id="node2" class="node">
<title>s1</title>
<ellipse fill="none" stroke="#000000" cx="57.0122" cy="-1416" rx="31.2258" ry="19.5322"/>
<text text-anchor="middle" x="57.0122" y="-1414.6" font-family="Times,serif" font-size="14.00" fill="#000000">野兽</text>
</g>
<!-- h1 -->
<g id="node15" class="node">
<title>h1</title>
<ellipse fill="none" stroke="#000000" cx="456.7351" cy="-2014" rx="50.8235" ry="19.5322"/>
<text text-anchor="middle" x="456.7351" y="-2012.6" font-family="Times,serif" font-size="14.00" fill="#000000">魅惑魔女</text>
</g>
<!-- s1&#45;&gt;h1 -->
<g id="edge2" class="edge">
<title>s1&#45;&gt;h1</title>
<path fill="none" stroke="#000000" d="M84.2353,-1425.4753C91.9571,-1429.1241 99.9159,-1433.9155 106.0244,-1440 299.2326,-1632.452 170.1078,-1813.5406 378.0244,-1990 386.956,-1997.5803 398.2415,-2002.7668 409.4565,-2006.3154"/>
</g>
<!-- h3 -->
<g id="node17" class="node">
<title>h3</title>
<ellipse fill="none" stroke="#000000" cx="456.7351" cy="-2198" rx="50.8235" ry="19.5322"/>
<text text-anchor="middle" x="456.7351" y="-2196.6" font-family="Times,serif" font-size="14.00" fill="#000000">巨牙海民</text>
</g>
<!-- s1&#45;&gt;h3 -->
<g id="edge4" class="edge">
<title>s1&#45;&gt;h3</title>
<path fill="none" stroke="#000000" d="M84.6413,-1425.0884C92.3771,-1428.7239 100.2417,-1433.6051 106.0244,-1440 339.3644,-1698.0455 124.8813,-1935.3503 378.0244,-2174 386.5483,-2182.0359 397.6873,-2187.3862 408.8916,-2190.9469"/>
</g>
<!-- h23 -->
<g id="node37" class="node">
<title>h23</title>
<ellipse fill="none" stroke="#000000" cx="456.7351" cy="-1738" rx="31.2258" ry="19.5322"/>
<text text-anchor="middle" x="456.7351" y="-1736.6" font-family="Times,serif" font-size="14.00" fill="#000000">狼人</text>
</g>
<!-- s1&#45;&gt;h23 -->
<g id="edge26" class="edge">
<title>s1&#45;&gt;h23</title>
<path fill="none" stroke="#000000" d="M83.1167,-1426.7957C90.8002,-1430.4898 99.0184,-1434.975 106.0244,-1440 245.4594,-1540.0092 231.07,-1625.409 378.0244,-1714 392.8286,-1722.9247 411.2225,-1728.7744 426.5054,-1732.4622"/>
</g>
<!-- h24 -->
<g id="node38" class="node">
<title>h24</title>
<ellipse fill="none" stroke="#000000" cx="456.7351" cy="-2060" rx="50.8235" ry="19.5322"/>
<text text-anchor="middle" x="456.7351" y="-2058.6" font-family="Times,serif" font-size="14.00" fill="#000000">剧毒术士</text>
</g>
<!-- s1&#45;&gt;h24 -->
<g id="edge27" class="edge">
<title>s1&#45;&gt;h24</title>
<path fill="none" stroke="#000000" d="M84.3543,-1425.3577C92.0802,-1429.0025 100.0114,-1433.8211 106.0244,-1440 309.093,-1648.6705 158.9876,-1844.1586 378.0244,-2036 386.8369,-2043.7184 398.0796,-2048.9545 409.2915,-2052.5068"/>
</g>
<!-- h30 -->
<g id="node44" class="node">
<title>h30</title>
<ellipse fill="none" stroke="#000000" cx="456.7351" cy="-2152" rx="31.2258" ry="19.5322"/>
<text text-anchor="middle" x="456.7351" y="-2150.6" font-family="Times,serif" font-size="14.00" fill="#000000">沙王</text>
</g>
<!-- s1&#45;&gt;h30 -->
<g id="edge33" class="edge">
<title>s1&#45;&gt;h30</title>
<path fill="none" stroke="#000000" d="M84.5556,-1425.1668C92.2884,-1428.8049 100.173,-1433.6679 106.0244,-1440 329.18,-1681.4865 136.3517,-1905.046 378.0244,-2128 391.0448,-2140.0119 409.9187,-2146.0181 425.9207,-2149.0185"/>
</g>
<!-- h46 -->
<g id="node60" class="node">
<title>h46</title>
<ellipse fill="none" stroke="#000000" cx="456.7351" cy="-2106" rx="60.623" ry="19.5322"/>
<text text-anchor="middle" x="456.7351" y="-2104.6" font-family="Times,serif" font-size="14.00" fill="#000000">利爪德鲁伊</text>
</g>
<!-- s1&#45;&gt;h46 -->
<g id="edge50" class="edge">
<title>s1&#45;&gt;h46</title>
<path fill="none" stroke="#000000" d="M84.4604,-1425.2558C92.19,-1428.897 100.0966,-1433.7393 106.0244,-1440 319.0834,-1665.0225 147.7271,-1874.6539 378.0244,-2082 385.1378,-2088.4045 393.9192,-2093.1006 403.0083,-2096.5438"/>
</g>
<!-- s2 -->
<g id="node3" class="node">
<title>s2</title>
<ellipse fill="none" stroke="#000000" cx="57.0122" cy="-1370" rx="41.0244" ry="19.5322"/>
<text text-anchor="middle" x="57.0122" y="-1368.6" font-family="Times,serif" font-size="14.00" fill="#000000">食人魔</text>
</g>
<!-- h2 -->
<g id="node16" class="node">
<title>h2</title>
<ellipse fill="none" stroke="#000000" cx="456.7351" cy="-1968" rx="70.922" ry="19.5322"/>
<text text-anchor="middle" x="456.7351" y="-1966.6" font-family="Times,serif" font-size="14.00" fill="#000000">食人魔魔法师</text>
</g>
<!-- s2&#45;&gt;h2 -->
<g id="edge3" class="edge">
<title>s2&#45;&gt;h2</title>
<path fill="none" stroke="#000000" d="M89.3388,-1382.0482C95.3661,-1385.2926 101.2585,-1389.2527 106.0244,-1394 299.2326,-1586.452 170.1078,-1767.5406 378.0244,-1944 384.2329,-1949.2692 391.5789,-1953.3818 399.2479,-1956.5916"/>
</g>
<!-- s3 -->
<g id="node4" class="node">
<title>s3</title>
<ellipse fill="none" stroke="#000000" cx="57.0122" cy="-1324" rx="31.2258" ry="19.5322"/>
<text text-anchor="middle" x="57.0122" y="-1322.6" font-family="Times,serif" font-size="14.00" fill="#000000">亡灵</text>
</g>
<!-- h4 -->
<g id="node18" class="node">
<title>h4</title>
<ellipse fill="none" stroke="#000000" cx="456.7351" cy="-1830" rx="50.8235" ry="19.5322"/>
<text text-anchor="middle" x="456.7351" y="-1828.6" font-family="Times,serif" font-size="14.00" fill="#000000">卓尔游侠</text>
</g>
<!-- s3&#45;&gt;h4 -->
<g id="edge5" class="edge">
<title>s3&#45;&gt;h4</title>
<path fill="none" stroke="#000000" d="M83.9504,-1333.7725C91.6624,-1337.4315 99.6873,-1342.1539 106.0244,-1348 280.035,-1508.5282 191.7861,-1659.8348 378.0244,-1806 387.3522,-1813.3207 398.9054,-1818.4172 410.2604,-1821.9623"/>
</g>
<!-- h29 -->
<g id="node43" class="node">
<title>h29</title>
<ellipse fill="none" stroke="#000000" cx="456.7351" cy="-1784" rx="50.8235" ry="19.5322"/>
<text text-anchor="middle" x="456.7351" y="-1782.6" font-family="Times,serif" font-size="14.00" fill="#000000">死亡骑士</text>
</g>
<!-- s3&#45;&gt;h29 -->
<g id="edge32" class="edge">
<title>s3&#45;&gt;h29</title>
<path fill="none" stroke="#000000" d="M83.7793,-1333.9625C91.4854,-1337.628 99.55,-1342.3064 106.0244,-1348 270.7921,-1492.8979 202.244,-1628.6796 378.0244,-1760 387.5237,-1767.0967 399.1373,-1772.1144 410.4955,-1775.6553"/>
</g>
<!-- h40 -->
<g id="node54" class="node">
<title>h40</title>
<ellipse fill="none" stroke="#000000" cx="456.7351" cy="-1876" rx="50.8235" ry="19.5322"/>
<text text-anchor="middle" x="456.7351" y="-1874.6" font-family="Times,serif" font-size="14.00" fill="#000000">死灵法师</text>
</g>
<!-- s3&#45;&gt;h40 -->
<g id="edge43" class="edge">
<title>s3&#45;&gt;h40</title>
<path fill="none" stroke="#000000" d="M84.1015,-1333.612C91.8187,-1337.2655 99.8086,-1342.0252 106.0244,-1348 289.5331,-1524.3935 181.055,-1690.776 378.0244,-1852 387.0895,-1859.42 398.423,-1864.549 409.6416,-1868.0933"/>
</g>
<!-- h48 -->
<g id="node62" class="node">
<title>h48</title>
<ellipse fill="none" stroke="#000000" cx="456.7351" cy="-1922" rx="31.2258" ry="19.5322"/>
<text text-anchor="middle" x="456.7351" y="-1920.6" font-family="Times,serif" font-size="14.00" fill="#000000">巫妖</text>
</g>
<!-- s3&#45;&gt;h48 -->
<g id="edge52" class="edge">
<title>s3&#45;&gt;h48</title>
<path fill="none" stroke="#000000" d="M84.2353,-1333.4753C91.9571,-1337.1241 99.9159,-1341.9155 106.0244,-1348 299.2326,-1540.452 170.1078,-1721.5406 378.0244,-1898 391.4217,-1909.3704 410.1155,-1915.3549 425.9233,-1918.5043"/>
</g>
<!-- s4 -->
<g id="node5" class="node">
<title>s4</title>
<ellipse fill="none" stroke="#000000" cx="57.0122" cy="-1278" rx="31.2258" ry="19.5322"/>
<text text-anchor="middle" x="57.0122" y="-1276.6" font-family="Times,serif" font-size="14.00" fill="#000000">地精</text>
</g>
<!-- h5 -->
<g id="node19" class="node">
<title>h5</title>
<ellipse fill="none" stroke="#000000" cx="456.7351" cy="-1692" rx="50.8235" ry="19.5322"/>
<text text-anchor="middle" x="456.7351" y="-1690.6" font-family="Times,serif" font-size="14.00" fill="#000000">赏金猎人</text>
</g>
<!-- s4&#45;&gt;h5 -->
<g id="edge6" class="edge">
<title>s4&#45;&gt;h5</title>
<path fill="none" stroke="#000000" d="M83.5851,-1288.1895C91.2846,-1291.8628 99.3942,-1296.4886 106.0244,-1302 261.8771,-1431.555 212.3522,-1551.264 378.0244,-1668 387.7174,-1674.8299 399.3989,-1679.7538 410.7607,-1683.2898"/>
</g>
<!-- h6 -->
<g id="node20" class="node">
<title>h6</title>
<ellipse fill="none" stroke="#000000" cx="456.7351" cy="-1646" rx="50.8235" ry="19.5322"/>
<text text-anchor="middle" x="456.7351" y="-1644.6" font-family="Times,serif" font-size="14.00" fill="#000000">发条技师</text>
</g>
<!-- s4&#45;&gt;h6 -->
<g id="edge7" class="edge">
<title>s4&#45;&gt;h6</title>
<path fill="none" stroke="#000000" d="M83.3651,-1288.4633C91.057,-1292.146 99.2176,-1296.7082 106.0244,-1302 253.3882,-1416.5653 222.0075,-1519.5304 378.0244,-1622 388.0548,-1628.5878 399.9772,-1633.4364 411.4701,-1636.9778"/>
</g>
<!-- h9 -->
<g id="node23" class="node">
<title>h9</title>
<ellipse fill="none" stroke="#000000" cx="456.7351" cy="-1600" rx="41.0244" ry="19.5322"/>
<text text-anchor="middle" x="456.7351" y="-1598.6" font-family="Times,serif" font-size="14.00" fill="#000000">修补匠</text>
</g>
<!-- s4&#45;&gt;h9 -->
<g id="edge10" class="edge">
<title>s4&#45;&gt;h9</title>
<path fill="none" stroke="#000000" d="M83.1167,-1288.7957C90.8002,-1292.4898 99.0184,-1296.975 106.0244,-1302 245.4594,-1402.0092 231.07,-1487.409 378.0244,-1576 390.3816,-1583.4495 405.2399,-1588.7566 418.7024,-1592.4523"/>
</g>
<!-- h14 -->
<g id="node28" class="node">
<title>h14</title>
<ellipse fill="none" stroke="#000000" cx="456.7351" cy="-1462" rx="41.0244" ry="19.5322"/>
<text text-anchor="middle" x="456.7351" y="-1460.6" font-family="Times,serif" font-size="14.00" fill="#000000">伐木机</text>
</g>
<!-- s4&#45;&gt;h14 -->
<g id="edge15" class="edge">
<title>s4&#45;&gt;h14</title>
<path fill="none" stroke="#000000" d="M81.7142,-1290.0464C89.4994,-1293.8563 98.1271,-1298.0922 106.0244,-1302 227.1629,-1361.9426 252.4982,-1387.8919 378.0244,-1438 391.6905,-1443.4553 407.1014,-1448.4059 420.6408,-1452.3749"/>
</g>
<!-- h42 -->
<g id="node56" class="node">
<title>h42</title>
<ellipse fill="none" stroke="#000000" cx="456.7351" cy="-1554" rx="50.8235" ry="19.5322"/>
<text text-anchor="middle" x="456.7351" y="-1552.6" font-family="Times,serif" font-size="14.00" fill="#000000">炼金术士</text>
</g>
<!-- s4&#45;&gt;h42 -->
<g id="edge45" class="edge">
<title>s4&#45;&gt;h42</title>
<path fill="none" stroke="#000000" d="M82.8397,-1289.2013C90.5135,-1292.9094 98.7961,-1297.3004 106.0244,-1302 238.2725,-1387.9826 239.3508,-1454.8189 378.0244,-1530 388.6997,-1535.7876 400.9634,-1540.3777 412.5838,-1543.9275"/>
</g>
<!-- h51 -->
<g id="node65" class="node">
<title>h51</title>
<ellipse fill="none" stroke="#000000" cx="456.7351" cy="-1508" rx="60.623" ry="19.5322"/>
<text text-anchor="middle" x="456.7351" y="-1506.6" font-family="Times,serif" font-size="14.00" fill="#000000">地精工程师</text>
</g>
<!-- s4&#45;&gt;h51 -->
<g id="edge55" class="edge">
<title>s4&#45;&gt;h51</title>
<path fill="none" stroke="#000000" d="M82.2845,-1289.5731C90.0167,-1293.3268 98.471,-1297.6499 106.0244,-1302 232.0701,-1374.5922 246.5996,-1421.673 378.0244,-1484 387.7055,-1488.5912 398.4699,-1492.5522 408.8519,-1495.8581"/>
</g>
<!-- s5 -->
<g id="node6" class="node">
<title>s5</title>
<ellipse fill="none" stroke="#000000" cx="57.0122" cy="-1232" rx="31.2258" ry="19.5322"/>
<text text-anchor="middle" x="57.0122" y="-1230.6" font-family="Times,serif" font-size="14.00" fill="#000000">巨魔</text>
</g>
<!-- h7 -->
<g id="node21" class="node">
<title>h7</title>
<ellipse fill="none" stroke="#000000" cx="456.7351" cy="-1324" rx="50.8235" ry="19.5322"/>
<text text-anchor="middle" x="456.7351" y="-1322.6" font-family="Times,serif" font-size="14.00" fill="#000000">暗影萨满</text>
</g>
<!-- s5&#45;&gt;h7 -->
<g id="edge8" class="edge">
<title>s5&#45;&gt;h7</title>
<path fill="none" stroke="#000000" d="M86.4048,-1238.765C155.9085,-1254.7619 330.6908,-1294.9897 412.815,-1313.8914"/>
</g>
<!-- h8 -->
<g id="node22" class="node">
<title>h8</title>
<ellipse fill="none" stroke="#000000" cx="456.7351" cy="-1278" rx="50.8235" ry="19.5322"/>
<text text-anchor="middle" x="456.7351" y="-1276.6" font-family="Times,serif" font-size="14.00" fill="#000000">蝙蝠骑士</text>
</g>
<!-- s5&#45;&gt;h8 -->
<g id="edge9" class="edge">
<title>s5&#45;&gt;h8</title>
<path fill="none" stroke="#000000" d="M87.7141,-1235.5332C156.6344,-1243.4645 324.1343,-1262.7403 407.6727,-1272.3539"/>
</g>
<!-- h17 -->
<g id="node31" class="node">
<title>h17</title>
<ellipse fill="none" stroke="#000000" cx="456.7351" cy="-1416" rx="31.2258" ry="19.5322"/>
<text text-anchor="middle" x="456.7351" y="-1414.6" font-family="Times,serif" font-size="14.00" fill="#000000">巫医</text>
</g>
<!-- s5&#45;&gt;h17 -->
<g id="edge19" class="edge">
<title>s5&#45;&gt;h17</title>
<path fill="none" stroke="#000000" d="M81.7142,-1244.0464C89.4994,-1247.8563 98.1271,-1252.0922 106.0244,-1256 227.1629,-1315.9426 252.4982,-1341.8919 378.0244,-1392 394.2115,-1398.4616 412.8464,-1404.2152 427.9197,-1408.4681"/>
</g>
<!-- h38 -->
<g id="node52" class="node">
<title>h38</title>
<ellipse fill="none" stroke="#000000" cx="456.7351" cy="-1370" rx="50.8235" ry="19.5322"/>
<text text-anchor="middle" x="456.7351" y="-1368.6" font-family="Times,serif" font-size="14.00" fill="#000000">巨魔战将</text>
</g>
<!-- s5&#45;&gt;h38 -->
<g id="edge41" class="edge">
<title>s5&#45;&gt;h38</title>
<path fill="none" stroke="#000000" d="M83.9268,-1242.0234C138.9129,-1262.3978 268.2218,-1309.7835 378.0244,-1346 390.3706,-1350.0722 403.8851,-1354.2819 416.1773,-1358.0168"/>
</g>
<!-- s6 -->
<g id="node7" class="node">
<title>s6</title>
<ellipse fill="none" stroke="#000000" cx="57.0122" cy="-1186" rx="31.2258" ry="19.5322"/>
<text text-anchor="middle" x="57.0122" y="-1184.6" font-family="Times,serif" font-size="14.00" fill="#000000">精灵</text>
</g>
<!-- h10 -->
<g id="node24" class="node">
<title>h10</title>
<ellipse fill="none" stroke="#000000" cx="456.7351" cy="-1094" rx="41.0244" ry="19.5322"/>
<text text-anchor="middle" x="456.7351" y="-1092.6" font-family="Times,serif" font-size="14.00" fill="#000000">敌法师</text>
</g>
<!-- s6&#45;&gt;h10 -->
<g id="edge11" class="edge">
<title>s6&#45;&gt;h10</title>
<path fill="none" stroke="#000000" d="M86.4048,-1179.235C157.8918,-1162.7816 340.7511,-1120.6948 419.6142,-1102.5437"/>
</g>
<!-- h16 -->
<g id="node30" class="node">
<title>h16</title>
<ellipse fill="none" stroke="#000000" cx="456.7351" cy="-680" rx="41.0244" ry="19.5322"/>
<text text-anchor="middle" x="456.7351" y="-678.6" font-family="Times,serif" font-size="14.00" fill="#000000">精灵龙</text>
</g>
<!-- s6&#45;&gt;h16 -->
<g id="edge17" class="edge">
<title>s6&#45;&gt;h16</title>
<path fill="none" stroke="#000000" d="M83.9504,-1176.2275C91.6624,-1172.5685 99.6873,-1167.8461 106.0244,-1162 280.035,-1001.4718 191.7861,-850.1652 378.0244,-704 389.3751,-695.0916 404.0211,-689.4768 417.5954,-685.9434"/>
</g>
<!-- h20 -->
<g id="node34" class="node">
<title>h20</title>
<ellipse fill="none" stroke="#000000" cx="456.7351" cy="-1186" rx="50.8235" ry="19.5322"/>
<text text-anchor="middle" x="456.7351" y="-1184.6" font-family="Times,serif" font-size="14.00" fill="#000000">树精卫士</text>
</g>
<!-- s6&#45;&gt;h20 -->
<g id="edge22" class="edge">
<title>s6&#45;&gt;h20</title>
<path fill="none" stroke="#000000" d="M88.3778,-1186C157.1185,-1186 321.5922,-1186 405.5449,-1186"/>
</g>
<!-- h21 -->
<g id="node35" class="node">
<title>h21</title>
<ellipse fill="none" stroke="#000000" cx="456.7351" cy="-1140" rx="50.8235" ry="19.5322"/>
<text text-anchor="middle" x="456.7351" y="-1138.6" font-family="Times,serif" font-size="14.00" fill="#000000">月之骑士</text>
</g>
<!-- s6&#45;&gt;h21 -->
<g id="edge23" class="edge">
<title>s6&#45;&gt;h21</title>
<path fill="none" stroke="#000000" d="M87.7141,-1182.4668C156.6344,-1174.5355 324.1343,-1155.2597 407.6727,-1145.6461"/>
</g>
<!-- h22 -->
<g id="node36" class="node">
<title>h22</title>
<ellipse fill="none" stroke="#000000" cx="456.7351" cy="-1048" rx="31.2258" ry="19.5322"/>
<text text-anchor="middle" x="456.7351" y="-1046.6" font-family="Times,serif" font-size="14.00" fill="#000000">先知</text>
</g>
<!-- s6&#45;&gt;h22 -->
<g id="edge24" class="edge">
<title>s6&#45;&gt;h22</title>
<path fill="none" stroke="#000000" d="M83.9268,-1175.9766C138.9129,-1155.6022 268.2218,-1108.2165 378.0244,-1072 394.5764,-1066.5406 413.2284,-1060.834 428.2197,-1056.3557"/>
</g>
<!-- h27 -->
<g id="node41" class="node">
<title>h27</title>
<ellipse fill="none" stroke="#000000" cx="456.7351" cy="-1232" rx="41.0244" ry="19.5322"/>
<text text-anchor="middle" x="456.7351" y="-1230.6" font-family="Times,serif" font-size="14.00" fill="#000000">风行者</text>
</g>
<!-- s6&#45;&gt;h27 -->
<g id="edge30" class="edge">
<title>s6&#45;&gt;h27</title>
<path fill="none" stroke="#000000" d="M87.7141,-1189.5332C159.1938,-1197.759 336.7105,-1218.1876 416.6227,-1227.3839"/>
</g>
<!-- h28 -->
<g id="node42" class="node">
<title>h28</title>
<ellipse fill="none" stroke="#000000" cx="456.7351" cy="-1002" rx="50.8235" ry="19.5322"/>
<text text-anchor="middle" x="456.7351" y="-1000.6" font-family="Times,serif" font-size="14.00" fill="#000000">幻影刺客</text>
</g>
<!-- s6&#45;&gt;h28 -->
<g id="edge31" class="edge">
<title>s6&#45;&gt;h28</title>
<path fill="none" stroke="#000000" d="M81.7142,-1173.9536C89.4994,-1170.1437 98.1271,-1165.9078 106.0244,-1162 227.1629,-1102.0574 252.4982,-1076.1081 378.0244,-1026 389.833,-1021.2862 402.9443,-1016.9492 415.0252,-1013.2967"/>
</g>
<!-- h41 -->
<g id="node55" class="node">
<title>h41</title>
<ellipse fill="none" stroke="#000000" cx="456.7351" cy="-956" rx="50.8235" ry="19.5322"/>
<text text-anchor="middle" x="456.7351" y="-954.6" font-family="Times,serif" font-size="14.00" fill="#000000">圣堂刺客</text>
</g>
<!-- s6&#45;&gt;h41 -->
<g id="edge44" class="edge">
<title>s6&#45;&gt;h41</title>
<path fill="none" stroke="#000000" d="M82.2845,-1174.4269C90.0167,-1170.6732 98.471,-1166.3501 106.0244,-1162 232.0701,-1089.4078 246.5996,-1042.327 378.0244,-980 389.2545,-974.6742 401.9422,-970.1965 413.7999,-966.6054"/>
</g>
<!-- s7 -->
<g id="node8" class="node">
<title>s7</title>
<ellipse fill="none" stroke="#000000" cx="57.0122" cy="-1140" rx="31.2258" ry="19.5322"/>
<text text-anchor="middle" x="57.0122" y="-1138.6" font-family="Times,serif" font-size="14.00" fill="#000000">人类</text>
</g>
<!-- h11 -->
<g id="node25" class="node">
<title>h11</title>
<ellipse fill="none" stroke="#000000" cx="456.7351" cy="-910" rx="50.8235" ry="19.5322"/>
<text text-anchor="middle" x="456.7351" y="-908.6" font-family="Times,serif" font-size="14.00" fill="#000000">水晶室女</text>
</g>
<!-- s7&#45;&gt;h11 -->
<g id="edge12" class="edge">
<title>s7&#45;&gt;h11</title>
<path fill="none" stroke="#000000" d="M82.2845,-1128.4269C90.0167,-1124.6732 98.471,-1120.3501 106.0244,-1116 232.0701,-1043.4078 246.5996,-996.327 378.0244,-934 389.2545,-928.6742 401.9422,-924.1965 413.7999,-920.6054"/>
</g>
<!-- s7&#45;&gt;h23 -->
<g id="edge25" class="edge">
<title>s7&#45;&gt;h23</title>
<path fill="none" stroke="#000000" d="M84.2353,-1149.4753C91.9571,-1153.1241 99.9159,-1157.9155 106.0244,-1164 299.2326,-1356.452 170.1078,-1537.5406 378.0244,-1714 391.4217,-1725.3704 410.1155,-1731.3549 425.9233,-1734.5043"/>
</g>
<!-- h25 -->
<g id="node39" class="node">
<title>h25</title>
<ellipse fill="none" stroke="#000000" cx="456.7351" cy="-818" rx="50.8235" ry="19.5322"/>
<text text-anchor="middle" x="456.7351" y="-816.6" font-family="Times,serif" font-size="14.00" fill="#000000">全能骑士</text>
</g>
<!-- s7&#45;&gt;h25 -->
<g id="edge28" class="edge">
<title>s7&#45;&gt;h25</title>
<path fill="none" stroke="#000000" d="M83.1167,-1129.2043C90.8002,-1125.5102 99.0184,-1121.025 106.0244,-1116 245.4594,-1015.9908 231.07,-930.591 378.0244,-842 388.3017,-835.8044 400.309,-831.0906 411.8044,-827.5533"/>
</g>
<!-- h35 -->
<g id="node49" class="node">
<title>h35</title>
<ellipse fill="none" stroke="#000000" cx="456.7351" cy="-726" rx="60.623" ry="19.5322"/>
<text text-anchor="middle" x="456.7351" y="-724.6" font-family="Times,serif" font-size="14.00" fill="#000000">秀逗魔导士</text>
</g>
<!-- s7&#45;&gt;h35 -->
<g id="edge38" class="edge">
<title>s7&#45;&gt;h35</title>
<path fill="none" stroke="#000000" d="M83.5851,-1129.8105C91.2846,-1126.1372 99.3942,-1121.5114 106.0244,-1116 261.8771,-986.445 212.3522,-866.736 378.0244,-750 386.1992,-744.2399 395.7884,-739.8354 405.4074,-736.4758"/>
</g>
<!-- h37 -->
<g id="node51" class="node">
<title>h37</title>
<ellipse fill="none" stroke="#000000" cx="456.7351" cy="-864" rx="50.8235" ry="19.5322"/>
<text text-anchor="middle" x="456.7351" y="-862.6" font-family="Times,serif" font-size="14.00" fill="#000000">海军上将</text>
</g>
<!-- s7&#45;&gt;h37 -->
<g id="edge40" class="edge">
<title>s7&#45;&gt;h37</title>
<path fill="none" stroke="#000000" d="M82.8397,-1128.7987C90.5135,-1125.0906 98.7961,-1120.6996 106.0244,-1116 238.2725,-1030.0174 239.3508,-963.1811 378.0244,-888 388.6997,-882.2124 400.9634,-877.6223 412.5838,-874.0725"/>
</g>
<!-- h39 -->
<g id="node53" class="node">
<title>h39</title>
<ellipse fill="none" stroke="#000000" cx="456.7351" cy="-772" rx="50.8235" ry="19.5322"/>
<text text-anchor="middle" x="456.7351" y="-770.6" font-family="Times,serif" font-size="14.00" fill="#000000">光之守卫</text>
</g>
<!-- s7&#45;&gt;h39 -->
<g id="edge42" class="edge">
<title>s7&#45;&gt;h39</title>
<path fill="none" stroke="#000000" d="M83.3651,-1129.5367C91.057,-1125.854 99.2176,-1121.2918 106.0244,-1116 253.3882,-1001.4347 222.0075,-898.4696 378.0244,-796 388.0548,-789.4122 399.9772,-784.5636 411.4701,-781.0222"/>
</g>
<!-- h45 -->
<g id="node59" class="node">
<title>h45</title>
<ellipse fill="none" stroke="#000000" cx="456.7351" cy="-634" rx="41.0244" ry="19.5322"/>
<text text-anchor="middle" x="456.7351" y="-632.6" font-family="Times,serif" font-size="14.00" fill="#000000">龙骑士</text>
</g>
<!-- s7&#45;&gt;h45 -->
<g id="edge48" class="edge">
<title>s7&#45;&gt;h45</title>
<path fill="none" stroke="#000000" d="M83.9504,-1130.2275C91.6624,-1126.5685 99.6873,-1121.8461 106.0244,-1116 280.035,-955.4718 191.7861,-804.1652 378.0244,-658 389.3751,-649.0916 404.0211,-643.4768 417.5954,-639.9434"/>
</g>
<!-- s8 -->
<g id="node9" class="node">
<title>s8</title>
<ellipse fill="none" stroke="#000000" cx="57.0122" cy="-1048" rx="31.2258" ry="19.5322"/>
<text text-anchor="middle" x="57.0122" y="-1046.6" font-family="Times,serif" font-size="14.00" fill="#000000">恶魔</text>
</g>
<!-- h15 -->
<g id="node29" class="node">
<title>h15</title>
<ellipse fill="none" stroke="#000000" cx="456.7351" cy="-496" rx="50.8235" ry="19.5322"/>
<text text-anchor="middle" x="456.7351" y="-494.6" font-family="Times,serif" font-size="14.00" fill="#000000">痛苦女王</text>
</g>
<!-- s8&#45;&gt;h15 -->
<g id="edge16" class="edge">
<title>s8&#45;&gt;h15</title>
<path fill="none" stroke="#000000" d="M84.1015,-1038.388C91.8187,-1034.7345 99.8086,-1029.9748 106.0244,-1024 289.5331,-847.6065 181.055,-681.224 378.0244,-520 387.0895,-512.58 398.423,-507.451 409.6416,-503.9067"/>
</g>
<!-- h19 -->
<g id="node33" class="node">
<title>h19</title>
<ellipse fill="none" stroke="#000000" cx="456.7351" cy="-404" rx="50.8235" ry="19.5322"/>
<text text-anchor="middle" x="456.7351" y="-402.6" font-family="Times,serif" font-size="14.00" fill="#000000">混沌骑士</text>
</g>
<!-- s8&#45;&gt;h19 -->
<g id="edge21" class="edge">
<title>s8&#45;&gt;h19</title>
<path fill="none" stroke="#000000" d="M84.3543,-1038.6423C92.0802,-1034.9975 100.0114,-1030.1789 106.0244,-1024 309.093,-815.3295 158.9876,-619.8414 378.0244,-428 386.8369,-420.2816 398.0796,-415.0455 409.2915,-411.4932"/>
</g>
<!-- h34 -->
<g id="node48" class="node">
<title>h34</title>
<ellipse fill="none" stroke="#000000" cx="456.7351" cy="-450" rx="31.2258" ry="19.5322"/>
<text text-anchor="middle" x="456.7351" y="-448.6" font-family="Times,serif" font-size="14.00" fill="#000000">影魔</text>
</g>
<!-- s8&#45;&gt;h34 -->
<g id="edge37" class="edge">
<title>s8&#45;&gt;h34</title>
<path fill="none" stroke="#000000" d="M84.2353,-1038.5247C91.9571,-1034.8759 99.9159,-1030.0845 106.0244,-1024 299.2326,-831.548 170.1078,-650.4594 378.0244,-474 391.4217,-462.6296 410.1155,-456.6451 425.9233,-453.4957"/>
</g>
<!-- h36 -->
<g id="node50" class="node">
<title>h36</title>
<ellipse fill="none" stroke="#000000" cx="456.7351" cy="-542" rx="50.8235" ry="19.5322"/>
<text text-anchor="middle" x="456.7351" y="-540.6" font-family="Times,serif" font-size="14.00" fill="#000000">末日使者</text>
</g>
<!-- s8&#45;&gt;h36 -->
<g id="edge39" class="edge">
<title>s8&#45;&gt;h36</title>
<path fill="none" stroke="#000000" d="M83.9504,-1038.2275C91.6624,-1034.5685 99.6873,-1029.8461 106.0244,-1024 280.035,-863.4718 191.7861,-712.1652 378.0244,-566 387.3522,-558.6793 398.9054,-553.5828 410.2604,-550.0377"/>
</g>
<!-- s9 -->
<g id="node10" class="node">
<title>s9</title>
<ellipse fill="none" stroke="#000000" cx="57.0122" cy="-1094" rx="27" ry="19.5322"/>
<text text-anchor="middle" x="57.0122" y="-1092.6" font-family="Times,serif" font-size="14.00" fill="#000000">龙</text>
</g>
<!-- s9&#45;&gt;h16 -->
<g id="edge18" class="edge">
<title>s9&#45;&gt;h16</title>
<path fill="none" stroke="#000000" d="M81.0642,-1084.9868C89.4844,-1081.1431 98.6657,-1076.1171 106.0244,-1070 261.8771,-940.445 212.3522,-820.736 378.0244,-704 389.8195,-695.689 404.5592,-690.2001 418.0841,-686.6003"/>
</g>
<!-- h33 -->
<g id="node47" class="node">
<title>h33</title>
<ellipse fill="none" stroke="#000000" cx="456.7351" cy="-588" rx="50.8235" ry="19.5322"/>
<text text-anchor="middle" x="456.7351" y="-586.6" font-family="Times,serif" font-size="14.00" fill="#000000">冥界亚龙</text>
</g>
<!-- s9&#45;&gt;h33 -->
<g id="edge36" class="edge">
<title>s9&#45;&gt;h33</title>
<path fill="none" stroke="#000000" d="M81.422,-1085.3953C89.8784,-1081.5929 98.991,-1076.4885 106.0244,-1070 280.035,-909.4718 191.7861,-758.1652 378.0244,-612 387.3522,-604.6793 398.9054,-599.5828 410.2604,-596.0377"/>
</g>
<!-- s9&#45;&gt;h45 -->
<g id="edge49" class="edge">
<title>s9&#45;&gt;h45</title>
<path fill="none" stroke="#000000" d="M81.2543,-1085.2092C89.6938,-1081.388 98.8385,-1076.3193 106.0244,-1070 270.7921,-925.1021 202.244,-789.3204 378.0244,-658 389.5838,-649.3643 404.2739,-643.807 417.825,-640.2432"/>
</g>
<!-- s10 -->
<g id="node11" class="node">
<title>s10</title>
<ellipse fill="none" stroke="#000000" cx="57.0122" cy="-1002" rx="31.2258" ry="19.5322"/>
<text text-anchor="middle" x="57.0122" y="-1000.6" font-family="Times,serif" font-size="14.00" fill="#000000">娜迦</text>
</g>
<!-- h18 -->
<g id="node32" class="node">
<title>h18</title>
<ellipse fill="none" stroke="#000000" cx="456.7351" cy="-266" rx="50.8235" ry="19.5322"/>
<text text-anchor="middle" x="456.7351" y="-264.6" font-family="Times,serif" font-size="14.00" fill="#000000">鱼人守卫</text>
</g>
<!-- s10&#45;&gt;h18 -->
<g id="edge20" class="edge">
<title>s10&#45;&gt;h18</title>
<path fill="none" stroke="#000000" d="M84.5556,-992.8332C92.2884,-989.1951 100.173,-984.3321 106.0244,-978 329.18,-736.5135 136.3517,-512.954 378.0244,-290 386.6346,-282.0566 397.8047,-276.7396 409.0112,-273.1814"/>
</g>
<!-- h31 -->
<g id="node45" class="node">
<title>h31</title>
<ellipse fill="none" stroke="#000000" cx="456.7351" cy="-312" rx="60.623" ry="19.5322"/>
<text text-anchor="middle" x="456.7351" y="-310.6" font-family="Times,serif" font-size="14.00" fill="#000000">鱼人夜行者</text>
</g>
<!-- s10&#45;&gt;h31 -->
<g id="edge34" class="edge">
<title>s10&#45;&gt;h31</title>
<path fill="none" stroke="#000000" d="M84.4604,-992.7442C92.19,-989.103 100.0966,-984.2607 106.0244,-978 319.0834,-752.9775 147.7271,-543.3461 378.0244,-336 385.1378,-329.5955 393.9192,-324.8994 403.0083,-321.4562"/>
</g>
<!-- h44 -->
<g id="node58" class="node">
<title>h44</title>
<ellipse fill="none" stroke="#000000" cx="456.7351" cy="-358" rx="50.8235" ry="19.5322"/>
<text text-anchor="middle" x="456.7351" y="-356.6" font-family="Times,serif" font-size="14.00" fill="#000000">蛇发女妖</text>
</g>
<!-- s10&#45;&gt;h44 -->
<g id="edge47" class="edge">
<title>s10&#45;&gt;h44</title>
<path fill="none" stroke="#000000" d="M84.3543,-992.6423C92.0802,-988.9975 100.0114,-984.1789 106.0244,-978 309.093,-769.3295 158.9876,-573.8414 378.0244,-382 386.8369,-374.2816 398.0796,-369.0455 409.2915,-365.4932"/>
</g>
<!-- h49 -->
<g id="node63" class="node">
<title>h49</title>
<ellipse fill="none" stroke="#000000" cx="456.7351" cy="-220" rx="50.8235" ry="19.5322"/>
<text text-anchor="middle" x="456.7351" y="-218.6" font-family="Times,serif" font-size="14.00" fill="#000000">潮汐猎人</text>
</g>
<!-- s10&#45;&gt;h49 -->
<g id="edge53" class="edge">
<title>s10&#45;&gt;h49</title>
<path fill="none" stroke="#000000" d="M84.6413,-992.9116C92.3771,-989.2761 100.2417,-984.3949 106.0244,-978 339.3644,-719.9545 124.8813,-482.6497 378.0244,-244 386.5483,-235.9641 397.6873,-230.6138 408.8916,-227.0531"/>
</g>
<!-- s11 -->
<g id="node12" class="node">
<title>s11</title>
<ellipse fill="none" stroke="#000000" cx="57.0122" cy="-956" rx="31.2258" ry="19.5322"/>
<text text-anchor="middle" x="57.0122" y="-954.6" font-family="Times,serif" font-size="14.00" fill="#000000">元素</text>
</g>
<!-- h26 -->
<g id="node40" class="node">
<title>h26</title>
<ellipse fill="none" stroke="#000000" cx="456.7351" cy="-174" rx="50.8235" ry="19.5322"/>
<text text-anchor="middle" x="456.7351" y="-172.6" font-family="Times,serif" font-size="14.00" fill="#000000">闪电幽魂</text>
</g>
<!-- s11&#45;&gt;h26 -->
<g id="edge29" class="edge">
<title>s11&#45;&gt;h26</title>
<path fill="none" stroke="#000000" d="M84.6413,-946.9116C92.3771,-943.2761 100.2417,-938.3949 106.0244,-932 339.3644,-673.9545 124.8813,-436.6497 378.0244,-198 386.5483,-189.9641 397.6873,-184.6138 408.8916,-181.0531"/>
</g>
<!-- h50 -->
<g id="node64" class="node">
<title>h50</title>
<ellipse fill="none" stroke="#000000" cx="456.7351" cy="-128" rx="31.2258" ry="19.5322"/>
<text text-anchor="middle" x="456.7351" y="-126.6" font-family="Times,serif" font-size="14.00" fill="#000000">谜团</text>
</g>
<!-- s11&#45;&gt;h50 -->
<g id="edge54" class="edge">
<title>s11&#45;&gt;h50</title>
<path fill="none" stroke="#000000" d="M84.7187,-946.9809C92.4572,-943.3478 100.3039,-938.4506 106.0244,-932 349.6221,-657.3146 113.3315,-406.4201 378.0244,-152 390.7961,-139.724 409.6622,-133.7095 425.7223,-130.7709"/>
</g>
<!-- s12 -->
<g id="node13" class="node">
<title>s12</title>
<ellipse fill="none" stroke="#000000" cx="57.0122" cy="-910" rx="31.2258" ry="19.5322"/>
<text text-anchor="middle" x="57.0122" y="-908.6" font-family="Times,serif" font-size="14.00" fill="#000000">矮人</text>
</g>
<!-- h32 -->
<g id="node46" class="node">
<title>h32</title>
<ellipse fill="none" stroke="#000000" cx="456.7351" cy="-82" rx="41.0244" ry="19.5322"/>
<text text-anchor="middle" x="456.7351" y="-80.6" font-family="Times,serif" font-size="14.00" fill="#000000">狙击手</text>
</g>
<!-- s12&#45;&gt;h32 -->
<g id="edge35" class="edge">
<title>s12&#45;&gt;h32</title>
<path fill="none" stroke="#000000" d="M58.7682,-890.275C68.7197,-790.4782 126.8691,-336.9164 378.0244,-106 388.6462,-96.2341 403.1385,-90.4384 416.7938,-87.0002"/>
</g>
<!-- h47 -->
<g id="node61" class="node">
<title>h47</title>
<ellipse fill="none" stroke="#000000" cx="456.7351" cy="-36" rx="60.623" ry="19.5322"/>
<text text-anchor="middle" x="456.7351" y="-34.6" font-family="Times,serif" font-size="14.00" fill="#000000">矮人直升机</text>
</g>
<!-- s12&#45;&gt;h47 -->
<g id="edge51" class="edge">
<title>s12&#45;&gt;h47</title>
<path fill="none" stroke="#000000" d="M58.299,-890.2053C66.0892,-786.9638 115.8521,-305.6267 378.0244,-60 385.0094,-53.4558 393.7297,-48.6931 402.7984,-45.2277"/>
</g>
</g>
</svg>
